<svg width="121" height="42" viewBox="0 0 121 42" fill="none" xmlns="http://www.w3.org/2000/svg">
<g clip-path="url(#clip0_8_3)">
<path d="M90.9941 -1.00977L73.9287 39.8105H67.0439L84.0361 -1.00977H90.9941ZM119.51 21.7441L96.707 32.1445V26.3584L113.016 19.8398V19.7422L96.707 12.7598V6.94922L119.51 17.7891V21.7441Z" fill="white"/>
<path d="M23.4258 32.4619L0.623047 22.0615V18.1064L23.4258 7.19336V13.0039L7.16602 19.9619V20.1084L23.4258 26.6514V32.4619Z" fill="white"/>
<path d="M27.9478 8.80776C22.2943 24.5773 49.1086 40.7502 51.2744 42.0253V6.77291C46.2447 -2.59065 32.364 -3.51744 27.9478 8.80776Z" fill="#6815AA"/>
<path d="M72.2193 8.81117C67.8031 -3.51403 53.9245 -2.59539 48.8948 6.77428V42.0287C51.0586 40.7536 77.8708 24.5807 72.2193 8.81117Z" fill="#60139C"/>
</g>
<defs>
<clipPath id="clip0_8_3">
<rect width="121" height="42" fill="white"/>
</clipPath>
</defs>
</svg>
