<svg width="202" height="40" viewBox="0 0 202 40" fill="none" xmlns="http://www.w3.org/2000/svg">
<g filter="url(#filter0_d_1_56)">
<path d="M15.5508 25.231L4.14941 20.0308V18.0532L15.5508 12.5967V15.502L7.4209 18.981V19.0542L15.5508 22.3257V25.231ZM24.6206 19.9697V26H20.6777V8.49512H26.8545C31.2653 8.49512 33.4707 10.3547 33.4707 14.0737C33.4707 15.8315 32.8359 17.2557 31.5664 18.3462C30.305 19.4285 28.6164 19.9697 26.5005 19.9697H24.6206ZM24.6206 11.5225V16.979H26.1709C28.2705 16.979 29.3203 16.0594 29.3203 14.2202C29.3203 12.4217 28.2705 11.5225 26.1709 11.5225H24.6206ZM43.8101 16.979C43.3462 16.7267 42.805 16.6006 42.1865 16.6006C41.3483 16.6006 40.6932 16.9098 40.2212 17.5283C39.7492 18.1387 39.5132 18.9728 39.5132 20.0308V26H35.6558V13.5H39.5132V15.8193H39.562C40.1724 14.1266 41.271 13.2803 42.8579 13.2803C43.2648 13.2803 43.5822 13.3291 43.8101 13.4268V16.979ZM47.6675 11.5225C47.0164 11.5225 46.4834 11.3312 46.0684 10.9487C45.6533 10.5581 45.4458 10.082 45.4458 9.52051C45.4458 8.94271 45.6533 8.4707 46.0684 8.10449C46.4834 7.73828 47.0164 7.55518 47.6675 7.55518C48.3267 7.55518 48.8597 7.73828 49.2666 8.10449C49.6816 8.4707 49.8892 8.94271 49.8892 9.52051C49.8892 10.1064 49.6816 10.5866 49.2666 10.9609C48.8597 11.3353 48.3267 11.5225 47.6675 11.5225ZM49.5718 26H45.7144V13.5H49.5718V26ZM64.8916 26H61.0464V19.0542C61.0464 17.1174 60.3547 16.1489 58.9712 16.1489C58.3039 16.1489 57.7546 16.4053 57.3232 16.918C56.8919 17.4307 56.6763 18.0817 56.6763 18.8711V26H52.8188V13.5H56.6763V15.4775H56.7251C57.6447 13.9557 58.9834 13.1948 60.7412 13.1948C63.5081 13.1948 64.8916 14.9119 64.8916 18.3462V26ZM77.4282 25.5483C76.5575 26.0529 75.3001 26.3052 73.6562 26.3052C71.7357 26.3052 70.1813 25.7233 68.9932 24.5596C67.805 23.3958 67.2109 21.8944 67.2109 20.0552C67.2109 17.9312 67.8457 16.2588 69.1152 15.0381C70.3929 13.8092 72.0978 13.1948 74.23 13.1948C75.703 13.1948 76.769 13.3901 77.4282 13.7808V17.0522C76.6226 16.45 75.7233 16.1489 74.7305 16.1489C73.6237 16.1489 72.7448 16.4744 72.0938 17.1255C71.4508 17.7684 71.1294 18.6595 71.1294 19.7988C71.1294 20.9056 71.4386 21.7764 72.0571 22.4111C72.6756 23.0378 73.526 23.3511 74.6084 23.3511C75.5687 23.3511 76.5086 23.05 77.4282 22.4478V25.5483ZM91.8691 13.5L86.791 27.001C85.5703 30.248 83.7311 31.8716 81.2734 31.8716C80.3376 31.8716 79.5685 31.7658 78.9663 31.5542V28.478C79.479 28.7791 80.0365 28.9297 80.6387 28.9297C81.6315 28.9297 82.3232 28.4618 82.7139 27.5259L83.373 25.9756L78.2949 13.5H82.5674L84.8989 21.105C85.0454 21.577 85.1593 22.1344 85.2407 22.7773H85.2896C85.3628 22.3053 85.4971 21.756 85.6924 21.1294L88.0483 13.5H91.8691Z" fill="white"/>
<path d="M124.059 26V8.49512H130.26C136.477 8.49512 139.586 11.3394 139.586 17.0278C139.586 19.7541 138.736 21.931 137.035 23.5586C135.342 25.1862 133.084 26 130.26 26H124.059ZM128.002 11.7056V22.8018H129.955C131.664 22.8018 133.002 22.2891 133.971 21.2637C134.947 20.2383 135.436 18.8426 135.436 17.0767C135.436 15.4084 134.952 14.0981 133.983 13.146C133.023 12.1857 131.672 11.7056 129.93 11.7056H128.002ZM153.343 20.8486H145.189C145.319 22.6634 146.463 23.5708 148.619 23.5708C149.995 23.5708 151.203 23.2453 152.245 22.5942V25.3774C151.089 25.9959 149.588 26.3052 147.74 26.3052C145.722 26.3052 144.156 25.7477 143.041 24.6328C141.926 23.5098 141.368 21.9473 141.368 19.9453C141.368 17.8701 141.971 16.2262 143.175 15.0137C144.379 13.8011 145.861 13.1948 147.618 13.1948C149.441 13.1948 150.849 13.736 151.842 14.8184C152.843 15.9007 153.343 17.3696 153.343 19.2251V20.8486ZM149.767 18.4805C149.767 16.6901 149.042 15.7949 147.594 15.7949C146.975 15.7949 146.438 16.0513 145.983 16.564C145.535 17.0767 145.262 17.7155 145.165 18.4805H149.767ZM167.54 13.5L162.889 26H158.495L154.064 13.5H158.19L160.362 21.2026C160.607 22.0734 160.749 22.814 160.79 23.4243H160.839C160.896 22.8465 161.046 22.1304 161.29 21.2759L163.512 13.5H167.54ZM178.942 8.49512L170.409 28.9053H166.966L175.463 8.49512H178.942ZM193.199 19.8721L181.798 25.0723V22.1792L189.952 18.9199V18.8711L181.798 15.3799V12.4746L193.199 17.8945V19.8721Z" fill="white"/>
<path d="M95.4602 12.3937C92.1297 21.6834 107.926 31.2107 109.202 31.9619V11.195C106.239 5.67903 98.0617 5.13307 95.4602 12.3937Z" fill="#6815AA"/>
<path d="M121.54 12.3957C118.939 5.13508 110.763 5.67624 107.8 11.1958V31.9639C109.075 31.2127 124.869 21.6854 121.54 12.3957Z" fill="#60139C"/>
</g>
<defs>
<filter id="filter0_d_1_56" x="-3" y="0" width="209" height="40" filterUnits="userSpaceOnUse" color-interpolation-filters="sRGB">
<feFlood flood-opacity="0" result="BackgroundImageFix"/>
<feColorMatrix in="SourceAlpha" type="matrix" values="0 0 0 0 0 0 0 0 0 0 0 0 0 0 0 0 0 0 127 0" result="hardAlpha"/>
<feOffset dy="4"/>
<feGaussianBlur stdDeviation="2"/>
<feComposite in2="hardAlpha" operator="out"/>
<feColorMatrix type="matrix" values="0 0 0 0 0 0 0 0 0 0 0 0 0 0 0 0 0 0 0.25 0"/>
<feBlend mode="normal" in2="BackgroundImageFix" result="effect1_dropShadow_1_56"/>
<feBlend mode="normal" in="SourceGraphic" in2="effect1_dropShadow_1_56" result="shape"/>
</filter>
</defs>
</svg>
